<svg width="32" height="32" viewBox="0 0 32 32" fill="none" xmlns="http://www.w3.org/2000/svg">
<mask id="mask0_2045_29" style="mask-type:alpha" maskUnits="userSpaceOnUse" x="0" y="0" width="32" height="32">
<rect width="32" height="32" fill="#D9D9D9"/>
</mask>
<g mask="url(#mask0_2045_29)">
<path d="M15.1623 27.6665V24.9998H12.4957V23.3245H15.1623V19.6202C13.3994 19.4019 11.9317 18.6281 10.759 17.2985C9.58633 15.9687 9 14.4158 9 12.6398C9 10.7023 9.68244 9.05573 11.0473 7.70017C12.4124 6.34439 14.0633 5.6665 16 5.6665C17.9367 5.6665 19.5876 6.34439 20.9527 7.70017C22.3176 9.05573 23 10.7018 23 12.6385C23 14.4141 22.4137 15.9671 21.241 17.2975C20.0683 18.6277 18.6006 19.4019 16.8377 19.6202V23.3245H19.5043V24.9998H16.8377V27.6665H15.1623ZM15.9977 17.9912C17.4721 17.9912 18.7286 17.4728 19.767 16.4362C20.8054 15.3993 21.3247 14.1435 21.3247 12.6688C21.3247 11.1944 20.8063 9.93795 19.7697 8.8995C18.7328 7.86106 17.477 7.34184 16.0023 7.34184C14.5279 7.34184 13.2714 7.86017 12.233 8.89684C11.1946 9.93373 10.6753 11.1895 10.6753 12.6642C10.6753 14.1386 11.1937 15.3951 12.2303 16.4335C13.2672 17.4719 14.523 17.9912 15.9977 17.9912Z" fill="#1C1B1F"/>
</g>
</svg>
