<svg width="33" height="32" viewBox="0 0 33 32" fill="none" xmlns="http://www.w3.org/2000/svg">
<mask id="mask0_2045_36" style="mask-type:alpha" maskUnits="userSpaceOnUse" x="0" y="0" width="33" height="32">
<rect x="0.5" width="32" height="32" fill="#D9D9D9"/>
</mask>
<g mask="url(#mask0_2045_36)">
<path d="M26.8331 5.6665V12.6752H25.1577V8.5545L18.6867 14.9792C19.1416 15.6192 19.502 16.3085 19.7677 17.0472C20.0335 17.7856 20.1664 18.5476 20.1664 19.3332C20.1664 21.2847 19.4877 22.9393 18.1304 24.2968C16.7731 25.6544 15.1187 26.3332 13.1674 26.3332C11.2163 26.3332 9.56175 25.6545 8.20375 24.2972C6.84552 22.9398 6.16641 21.2855 6.16641 19.3342C6.16641 17.3831 6.84519 15.7285 8.20275 14.3705C9.5603 13.0123 11.2149 12.3332 13.1664 12.3332C13.95 12.3332 14.7056 12.4664 15.4334 12.7328C16.1614 12.9993 16.846 13.3593 17.4871 13.8128L23.9581 7.34184H19.8244V5.6665H26.8331ZM13.1687 14.0085C11.6943 14.0085 10.4379 14.5268 9.39941 15.5635C8.36097 16.6004 7.84175 17.8562 7.84175 19.3308C7.84175 20.8053 8.36008 22.0617 9.39675 23.1002C10.4336 24.1386 11.6894 24.6578 13.1641 24.6578C14.6385 24.6578 15.895 24.1395 16.9334 23.1028C17.9719 22.0659 18.4911 20.8102 18.4911 19.3355C18.4911 17.8611 17.9727 16.6046 16.9361 15.5662C15.8992 14.5277 14.6434 14.0085 13.1687 14.0085Z" fill="#1C1B1F"/>
</g>
</svg>
